<svg xmlns="http://www.w3.org/2000/svg" viewBox="0 0 34 34"><defs><clipPath id="a"><path fill="none" d="M6.96 6.96h20.08v20.08H6.96z"/></clipPath></defs><title>insta</title><path fill="#000000" d="M21.65 17a4.65 4.65 0 1 1-9-1.75h-2.5v7a1.63 1.63 0 0 0 1.63 1.63h10.44a1.63 1.63 0 0 0 1.63-1.63v-7H21.3a4.62 4.62 0 0 1 .35 1.75zM17 20a3 3 0 0 0 3-3 3 3 0 0 0-.56-1.75 3 3 0 0 0-4.86 0A3 3 0 0 0 14 17a3 3 0 0 0 3 3zM23.54 13.34v-2.88h-2.88v2.9l2.88-.02zM17 .5A16.5 16.5 0 1 0 33.5 17 16.5 16.5 0 0 0 17 .5z"/><g fill="#fff" clip-path="url(#a)"><path d="M17 8.77c2.68 0 3 0 4.06.06a5.67 5.67 0 0 1 1.86.34 3.45 3.45 0 0 1 1.9 1.9 5.67 5.67 0 0 1 .35 1.87c0 1.06.06 1.38.06 4.06s0 3-.06 4.06a5.67 5.67 0 0 1-.34 1.86 3.08 3.08 0 0 1-.76 1.15 3 3 0 0 1-1.15.75 5.34 5.34 0 0 1-1.86.35c-1.06 0-1.38.06-4.06.06s-3 0-4.06-.06a5.34 5.34 0 0 1-1.86-.35 3.33 3.33 0 0 1-1.9-1.9 5.34 5.34 0 0 1-.35-1.86C8.78 20 8.77 19.68 8.77 17s0-3 .06-4.06a5.34 5.34 0 0 1 .35-1.86 3 3 0 0 1 .75-1.15 3.08 3.08 0 0 1 1.15-.76 5.67 5.67 0 0 1 1.86-.34c1.06-.05 1.38-.06 4.06-.06M17 7c-2.73 0-3.07 0-4.14.06a7.36 7.36 0 0 0-2.44.47 4.94 4.94 0 0 0-1.77 1.12 4.85 4.85 0 0 0-1.16 1.77 7.36 7.36 0 0 0-.5 2.44c0 1.07 0 1.4 0 4.14s0 3.07.06 4.14a7.36 7.36 0 0 0 .47 2.44 5.2 5.2 0 0 0 2.93 2.93 7.36 7.36 0 0 0 2.44.48c1.03.02 1.37.02 4.1.02s3.07 0 4.14-.06a7.36 7.36 0 0 0 2.44-.47 5.2 5.2 0 0 0 2.93-2.93 7.36 7.36 0 0 0 .5-2.4c0-1.07 0-1.4 0-4.14s0-3.07-.06-4.14a7.36 7.36 0 0 0-.47-2.44 4.85 4.85 0 0 0-1.16-1.77 4.94 4.94 0 0 0-1.76-1.16 7.36 7.36 0 0 0-2.4-.5c-1.07 0-1.4 0-4.14 0M17 11.85A5.15 5.15 0 1 0 22.15 17 5.14 5.14 0 0 0 17 11.85m0 8.5A3.35 3.35 0 1 1 20.35 17 3.35 3.35 0 0 1 17 20.35M23.56 11.64a1.2 1.2 0 1 1-1.2-1.2 1.2 1.2 0 0 1 1.2 1.2"/></g></svg>