<?xml version="1.0" encoding="utf-8"?>
<!-- Generator: Adobe Illustrator 27.1.0, SVG Export Plug-In . SVG Version: 6.00 Build 0)  -->
<svg version="1.1" id="Layer_1" xmlns="http://www.w3.org/2000/svg" xmlns:xlink="http://www.w3.org/1999/xlink" x="0px" y="0px"
	 viewBox="0 0 20 20" style="enable-background:new 0 0 20 20;" xml:space="preserve">
<style type="text/css">
	.st0{fill-rule:evenodd;clip-rule:evenodd;}
</style>
<path class="st0" d="M10,0C4.5,0,0,4.5,0,10c0,5.5,4.5,10,10,10c5.5,0,10-4.5,10-10C20,4.5,15.5,0,10,0z M12.3,7.3l0,0.3h0v4.3
	c0,1-0.4,2-1.1,2.7c-0.7,0.7-1.7,1.1-2.7,1.1c-1,0-2-0.4-2.7-1.1C5,14,4.6,13,4.6,11.9c0-1,0.4-2,1.1-2.7c0.7-0.7,1.7-1.1,2.7-1.1
	h0.7v2H8.4c-0.5,0-1,0.2-1.3,0.5c-0.3,0.3-0.5,0.8-0.5,1.3c0,0.5,0.2,1,0.5,1.3c0.3,0.3,0.8,0.5,1.3,0.5s1-0.2,1.3-0.5
	c0.3-0.3,0.5-0.8,0.5-1.3V4.2h2l0.1,0.2c0.3,0.6,0.7,1.1,1.3,1.6c0.4,0.3,0.9,0.5,1.4,0.6l0.4,0.1l-0.4,2l-0.3-0.1
	c-0.4-0.1-0.8-0.2-1.2-0.4C13.1,7.9,12.7,7.6,12.3,7.3z"/>
</svg>
