<svg xmlns="http://www.w3.org/2000/svg" viewBox="0 0 34 34"><title>twitter</title><path fill="#000000" d="M17 33.5A16.5 16.5 0 1 0 .5 17 16.5 16.5 0 0 0 17 33.5"/><path fill="#fff" d="M25.52 11.72a7.47 7.47 0 0 1-2 .55 3.54 3.54 0 0 0 1.54-1.94 7.1 7.1 0 0 1-2.22.85 3.5 3.5 0 0 0-6 3.2 10 10 0 0 1-7.2-3.66 3.47 3.47 0 0 0 1.08 4.66A3.4 3.4 0 0 1 9.17 15 3.5 3.5 0 0 0 12 18.42a3.46 3.46 0 0 1-.92.12 3.52 3.52 0 0 1-.66-.06 3.5 3.5 0 0 0 3.27 2.42 7 7 0 0 1-4.35 1.5 5.75 5.75 0 0 1-.84 0A9.94 9.94 0 0 0 23.8 14c0-.15 0-.3 0-.45a7.17 7.17 0 0 0 1.75-1.8"/></svg>