<svg width="36" height="28" viewBox="0 0 36 28" fill="none" xmlns="http://www.w3.org/2000/svg">
<path d="M8.75 7V8.25H8V6.3C8 5.99864 8.24864 5.75 8.55 5.75H12.6194C12.4854 5.99061 12.3673 6.24092 12.2656 6.5H9.25H8.75V7ZM5.75 3H5.25V3.5V8.25H2.75V1.05C2.75 0.748642 2.99864 0.5 3.3 0.5H32.7C33.0014 0.5 33.25 0.748642 33.25 1.05V8.25H30.75V3.5V3H30.25H5.75ZM27.25 7V6.5H26.75H23.7344C23.6327 6.24092 23.5146 5.99061 23.3806 5.75H27.45C27.7514 5.75 28 5.99864 28 6.3V8.25H27.25V7ZM7 21V21.5H7.5H12.2656C12.3673 21.7591 12.4854 22.0094 12.6194 22.25H6.8C6.49864 22.25 6.25 22.0014 6.25 21.7V16.8C6.25 16.4986 6.49864 16.25 6.8 16.25H12.6194C12.4854 16.4906 12.3673 16.7409 12.2656 17H7.5H7V17.5V21ZM32.5 14V13.5H32H4H3.5V14V24.5V25H4H32H32.5V24.5V14ZM29 17.5V17H28.5H23.7344C23.6327 16.7409 23.5146 16.4906 23.3806 16.25H29.2C29.5014 16.25 29.75 16.4986 29.75 16.8V21.7C29.75 22.0014 29.5014 22.25 29.2 22.25H23.3806C23.5146 22.0094 23.6327 21.7591 23.7344 21.5H28.5H29V21V17.5ZM14.5986 8.25C14.8405 6.58805 16.2707 5.3125 18 5.3125C19.7293 5.3125 21.1595 6.58805 21.4014 8.25H14.5986ZM35 11.55V26.95C35 27.2514 34.7514 27.5 34.45 27.5H1.55C1.24864 27.5 1 27.2514 1 26.95V11.55C1 11.2486 1.24864 11 1.55 11H34.45C34.7514 11 35 11.2486 35 11.55ZM21.4375 19.25C21.4375 21.1491 19.8991 22.6875 18 22.6875C16.1009 22.6875 14.5625 21.1491 14.5625 19.25C14.5625 17.3509 16.1009 15.8125 18 15.8125C19.8991 15.8125 21.4375 17.3509 21.4375 19.25Z" fill="#8B8B8B" stroke="#8B8B8B"/>
</svg>