<svg width="68" height="30" viewBox="0 0 68 30" fill="none" xmlns="http://www.w3.org/2000/svg">
<g clip-path="url(#clip0)">
<path d="M47 13H65.4615V1H47V13Z" fill="#286CB4"/>
<path fill-rule="evenodd" clip-rule="evenodd" d="M61.1647 7.29089V8.04782H59.2401V8.57397H61.1185V9.33089H59.2401V9.84782H61.1647V10.614L62.7247 8.95243L61.1647 7.29089ZM60.657 4.45705L60.0108 2.98474H58.1647L56.2724 7.28628H57.8093V11.1032L62.5539 11.1078L63.297 10.277L64.0493 11.1078H65.4616V9.89397L64.5754 8.9432L65.4616 7.99705V6.80166L64.5708 6.80628V4.50781L63.7354 6.80628H62.9231L62.0647 4.49858V6.80628H60.1262L59.8493 6.13243H58.3262L58.0493 6.80628H57.0247L58.5154 3.45089V3.44628H59.6924L61.1647 6.77397V3.44628L62.5954 3.45089L63.3339 5.51397L64.0816 3.44628H65.4616V2.98474H63.7216L63.3293 4.08781L62.937 2.98474H60.657V4.45705ZM58.3216 7.27705V10.6324H61.1647V10.6278H62.337L63.3062 9.55705L64.2847 10.6278H65.4616V10.5817L63.9201 8.95243L65.4616 7.30012V7.27705H64.2985L63.3293 8.33858L62.3693 7.27705H58.3216ZM58.6447 5.38012L59.0878 4.31397L59.5354 5.38012H58.6447Z" fill="white"/>
</g>
<rect width="18.46" height="11.4964" transform="translate(25 16.75)" fill="white"/>
<path d="M25 26.5912H43.46V28.2464H25V26.5912Z" fill="#F7B600"/>
<path d="M25 18.405H43.46V16.75H25V18.405Z" fill="#1A1F71"/>
<path d="M33.8631 19.8995L32.938 24.2243H31.8191L32.7442 19.8995H33.8631ZM38.5701 22.692L39.1593 21.0679L39.4977 22.692H38.5701ZM39.8191 24.2243H40.8536L39.9498 19.8995H38.9953C38.78 19.8995 38.5991 20.0244 38.5188 20.2165L36.8399 24.2243H38.0149L38.248 23.5782H39.6835L39.8191 24.2243ZM36.8983 22.8122C36.903 21.671 35.3203 21.6077 35.3307 21.0978C35.3345 20.9428 35.4821 20.7777 35.8053 20.7356C35.9655 20.7149 36.4078 20.6983 36.9088 20.9292L37.1048 20.0116C36.8356 19.9142 36.4892 19.8205 36.0583 19.8205C34.9522 19.8205 34.1741 20.408 34.1679 21.2499C34.1606 21.8727 34.7236 22.2198 35.147 22.4272C35.5832 22.639 35.7294 22.7752 35.7274 22.9645C35.7243 23.2546 35.3791 23.3831 35.0582 23.3879C34.4954 23.3968 34.1692 23.2358 33.909 23.1146L33.7059 24.0626C33.9677 24.1826 34.4502 24.2868 34.9499 24.2922C36.1257 24.2922 36.8948 23.7114 36.8983 22.8122ZM32.2642 19.8995L30.4514 24.2243H29.2687L28.3765 20.7727C28.3225 20.5606 28.2755 20.4825 28.1109 20.3929C27.8418 20.2467 27.3976 20.11 27.007 20.025L27.0334 19.8995H28.9375C29.1798 19.8995 29.398 20.0608 29.4535 20.3402L29.9249 22.843L31.0886 19.8995H32.2642Z" fill="#1A1F71"/>
<path d="M35.295 25.4147H34.8404V25.8378H35.349V25.965H34.6872V24.7911H35.3229V24.9183H34.8404V25.2892H35.295V25.4147Z" fill="#1A1F71"/>
<path d="M35.5839 24.7285H35.7371V25.965H35.5839V24.7285Z" fill="#1A1F71"/>
<path d="M36.5729 25.4614C36.5747 25.3657 36.5329 25.2141 36.3605 25.2141C36.2037 25.2141 36.1375 25.3552 36.1253 25.4614H36.5729ZM36.1236 25.5711C36.1271 25.7785 36.2577 25.8638 36.4126 25.8638C36.5224 25.8638 36.5903 25.8446 36.6461 25.8203L36.674 25.93C36.62 25.9543 36.526 25.9839 36.3918 25.9839C36.1324 25.9839 35.9774 25.8115 35.9774 25.5573C35.9774 25.303 36.1271 25.1044 36.3727 25.1044C36.6496 25.1044 36.721 25.3448 36.721 25.4998C36.721 25.5311 36.7192 25.5537 36.7157 25.5711H36.1236Z" fill="#1A1F71"/>
<path d="M37.5549 25.9353C37.5148 25.9545 37.426 25.9841 37.3128 25.9841C37.0585 25.9841 36.8931 25.8117 36.8931 25.5539C36.8931 25.2944 37.0707 25.1046 37.3459 25.1046C37.4364 25.1046 37.5165 25.1272 37.5583 25.1499L37.5236 25.2666C37.4869 25.2474 37.4294 25.2265 37.3459 25.2265C37.1525 25.2265 37.0481 25.371 37.0481 25.5453C37.0481 25.7403 37.1735 25.8605 37.3407 25.8605C37.4278 25.8605 37.4852 25.8396 37.5287 25.8204L37.5549 25.9353Z" fill="#1A1F71"/>
<path d="M37.9847 24.9198V25.1218H38.2041V25.2385H37.9847V25.6931C37.9847 25.7977 38.0143 25.8568 38.0997 25.8568C38.1414 25.8568 38.1659 25.8533 38.1885 25.8463L38.1955 25.9631C38.1659 25.9735 38.1188 25.9839 38.0596 25.9839C37.9882 25.9839 37.9307 25.9595 37.8942 25.9196C37.8524 25.8724 37.835 25.7977 37.835 25.6984V25.2385H37.7043V25.1218H37.835V24.9651L37.9847 24.9198Z" fill="#1A1F71"/>
<path d="M38.4182 25.3851C38.4182 25.2858 38.4163 25.2005 38.4112 25.122H38.5453L38.5523 25.2892H38.5574C38.5958 25.1761 38.6898 25.1046 38.7925 25.1046C38.8083 25.1046 38.8205 25.1064 38.8344 25.1081V25.2527C38.8187 25.2492 38.8031 25.2492 38.7821 25.2492C38.6742 25.2492 38.5975 25.3293 38.5766 25.4443C38.5732 25.4652 38.5714 25.4912 38.5714 25.5157V25.965H38.4182V25.3851Z" fill="#1A1F71"/>
<path d="M39.1092 25.5451C39.1092 25.7297 39.2137 25.8691 39.3635 25.8691C39.5098 25.8691 39.6195 25.7314 39.6195 25.5416C39.6195 25.3988 39.5481 25.2194 39.367 25.2194C39.1877 25.2194 39.1092 25.3866 39.1092 25.5451ZM39.7763 25.5364C39.7763 25.8481 39.5585 25.984 39.3565 25.984C39.1301 25.984 38.9526 25.8167 38.9526 25.5504C38.9526 25.2699 39.1389 25.1045 39.3705 25.1045C39.6126 25.1045 39.7763 25.2804 39.7763 25.5364Z" fill="#1A1F71"/>
<path d="M40.0112 25.3502C40.0112 25.2614 40.0093 25.1917 40.0042 25.1221H40.14L40.1488 25.2614H40.1522C40.194 25.183 40.2915 25.1047 40.4309 25.1047C40.5475 25.1047 40.7286 25.1743 40.7286 25.4633V25.965H40.5754V25.4791C40.5754 25.3433 40.5249 25.23 40.3804 25.23C40.2811 25.23 40.2027 25.3015 40.1749 25.3868C40.1679 25.406 40.1644 25.432 40.1644 25.4582V25.965H40.0112V25.3502Z" fill="#1A1F71"/>
<g clip-path="url(#clip1)">
<path d="M65.0302 26.6152C65.0302 28.153 63.778 29.4052 62.2402 29.4052H47.0603V18.3553C47.0603 16.8175 48.3125 15.5653 49.8502 15.5653H65.0302V26.6152Z" fill="white"/>
<path d="M60.0873 23.7814H61.2407C61.2736 23.7814 61.3505 23.7704 61.3835 23.7704C61.6031 23.7264 61.7899 23.5287 61.7899 23.2541C61.7899 22.9905 61.6031 22.7928 61.3835 22.7379C61.3505 22.7269 61.2846 22.7269 61.2407 22.7269H60.0873V23.7814Z" fill="url(#paint0_linear)"/>
<path d="M61.1089 16.499C60.0105 16.499 59.1098 17.3887 59.1098 18.4981V20.574H61.9327C61.9986 20.574 62.0754 20.574 62.1304 20.585C62.7674 20.618 63.2398 20.9475 63.2398 21.5187C63.2398 21.969 62.9212 22.3534 62.3281 22.4303V22.4523C62.9761 22.4962 63.4704 22.8587 63.4704 23.4189C63.4704 24.023 62.9212 24.4184 62.1963 24.4184H59.0988V28.4825H62.0315C63.1299 28.4825 64.0306 27.5928 64.0306 26.4834V16.499H61.1089Z" fill="url(#paint1_linear)"/>
<path d="M61.6471 21.6505C61.6471 21.3869 61.4603 21.2111 61.2407 21.1782C61.2187 21.1782 61.1638 21.1672 61.1308 21.1672H60.0873V22.1338H61.1308C61.1638 22.1338 61.2297 22.1338 61.2407 22.1228C61.4603 22.0898 61.6471 21.9141 61.6471 21.6505Z" fill="url(#paint2_linear)"/>
<path d="M50.0589 16.499C48.9605 16.499 48.0598 17.3887 48.0598 18.4981V23.4299C48.62 23.7045 49.2022 23.8802 49.7843 23.8802C50.4763 23.8802 50.8498 23.4628 50.8498 22.8917V20.5631H52.5633V22.8807C52.5633 23.7814 52.0031 24.5173 50.1029 24.5173C48.9495 24.5173 48.0489 24.2647 48.0489 24.2647V28.4715H50.9816C52.08 28.4715 52.9807 27.5818 52.9807 26.4725V16.499H50.0589Z" fill="url(#paint3_linear)"/>
<path d="M55.5839 16.499C54.4855 16.499 53.5848 17.3887 53.5848 18.4981V21.1123C54.0901 20.6839 54.9688 20.4093 56.3857 20.4752C57.1436 20.5081 57.9564 20.7168 57.9564 20.7168V21.5626C57.55 21.3539 57.0667 21.1672 56.4407 21.1232C55.3642 21.0464 54.7162 21.5736 54.7162 22.4962C54.7162 23.4299 55.3642 23.9571 56.4407 23.8692C57.0667 23.8253 57.55 23.6276 57.9564 23.4299V24.2757C57.9564 24.2757 57.1546 24.4843 56.3857 24.5173C54.9688 24.5832 54.0901 24.3086 53.5848 23.8802V28.4935H56.5175C57.6159 28.4935 58.5166 27.6038 58.5166 26.4944V16.499H55.5839Z" fill="url(#paint4_linear)"/>
</g>
<g clip-path="url(#clip2)">
<path d="M25 1H43.4615V13H25V1Z" fill="#293381"/>
<path fill-rule="evenodd" clip-rule="evenodd" d="M41.8553 9.81526H40.6692C40.623 9.62603 40.5769 9.44603 40.5492 9.26142C40.5507 9.22921 40.5448 9.1971 40.532 9.16751C40.5192 9.13793 40.4998 9.11164 40.4753 9.09065C40.4529 9.07095 40.4263 9.05657 40.3975 9.04858C40.3688 9.04059 40.3386 9.03919 40.3092 9.0445C39.8661 9.05834 39.4277 9.04449 38.9846 9.05834C38.935 9.07047 38.8887 9.09327 38.8488 9.12516C38.8089 9.15705 38.7765 9.19725 38.7538 9.24296C38.6661 9.42757 38.5969 9.62142 38.5323 9.81526H37.1892C37.2261 9.71373 37.2538 9.62142 37.2907 9.53834L39.0861 5.14449C39.1306 4.98948 39.2278 4.85486 39.3609 4.76385C39.494 4.67285 39.6548 4.63118 39.8153 4.64603C40.1384 4.65988 40.4615 4.64603 40.803 4.64603L41.8553 9.81526ZM25.6461 4.68757C25.72 4.66911 25.7984 4.65526 25.8723 4.64603H27.8061C27.9723 4.62296 28.143 4.66911 28.2769 4.7845C28.4107 4.89065 28.4892 5.0568 28.503 5.23219L29.0061 7.94603L29.0477 8.13065L29.1677 7.88142C29.5553 6.8845 29.943 5.88757 30.3215 4.89065C30.3861 4.71526 30.46 4.63219 30.6584 4.64142C31.0184 4.65988 31.3784 4.64603 31.7846 4.64603L31.2077 6.06757C30.7277 7.23988 30.2384 8.41219 29.7677 9.58911C29.7479 9.66839 29.6988 9.73723 29.6303 9.78176C29.5618 9.8263 29.4789 9.84321 29.3984 9.82911C29.0384 9.81526 28.6784 9.82911 28.2907 9.82911L27.8477 8.10296C27.6492 7.32757 27.4461 6.55219 27.2661 5.77219C27.2432 5.62672 27.1806 5.49036 27.0854 5.37802C26.9902 5.26569 26.8659 5.18171 26.7261 5.13526C26.3707 5.00603 26.0107 4.89065 25.6553 4.76603L25.6461 4.69219V4.68757ZM37.4569 4.80296L37.2446 5.81834C36.9538 5.73988 36.663 5.67988 36.363 5.64296C36.1185 5.62384 35.8728 5.65849 35.643 5.7445C35.32 5.87373 35.3015 6.18296 35.5784 6.39526C35.7446 6.51526 35.92 6.62142 36.1 6.71834L36.4877 6.9445C36.7119 7.07394 36.8978 7.26038 37.0267 7.48491C37.1556 7.70944 37.2228 7.96407 37.2215 8.22296C37.2215 8.75834 36.9446 9.25219 36.4877 9.50603C35.8439 9.8707 35.092 9.99654 34.3646 9.86142C34.1289 9.82902 33.897 9.77336 33.6723 9.69526C33.6331 9.67332 33.6 9.64204 33.5758 9.60419C33.5516 9.56634 33.5372 9.52311 33.5338 9.47834C33.58 9.16449 33.6584 8.85988 33.7184 8.57834C34.12 8.66603 34.5077 8.77219 34.9046 8.82296C35.1227 8.84338 35.3426 8.81174 35.5461 8.73065C35.6291 8.71174 35.704 8.66727 35.7603 8.6035C35.8166 8.53974 35.8515 8.45991 35.86 8.37526C35.8722 8.29127 35.8584 8.20555 35.8204 8.12964C35.7825 8.05372 35.7222 7.99126 35.6477 7.95065C35.5138 7.85834 35.38 7.77526 35.2369 7.70142C35.0107 7.58142 34.7938 7.44296 34.5815 7.29526C34.4233 7.17924 34.2921 7.03028 34.197 6.85865C34.1019 6.68703 34.0452 6.49682 34.0307 6.30115C34.0162 6.10548 34.0444 5.909 34.1131 5.72525C34.1819 5.5415 34.2898 5.37485 34.4292 5.2368C34.7321 4.91909 35.128 4.70576 35.56 4.62757C36.1955 4.49318 36.8568 4.55432 37.4569 4.80296ZM32.583 9.81526H31.2769L32.3569 4.6645H33.6538L32.583 9.81526ZM39.9077 6.14142L40.2861 7.98757H39.1877L39.8477 6.12757L39.9123 6.14142H39.9077Z" fill="white"/>
</g>
<path d="M2 16H22V29H2V16Z" fill="white"/>
<path d="M9.08157 27.2447H14.9131V17.759H9.08157V27.2372V27.2447Z" fill="#7773B4"/>
<path d="M9.68442 22.5023C9.68168 21.5881 9.88879 20.6854 10.2898 19.8638C10.6908 19.0422 11.275 18.3235 11.9975 17.7632C10.8327 16.8465 9.37166 16.3899 7.89218 16.4802C6.41271 16.5704 5.01803 17.2014 3.97342 18.253C3.41393 18.8102 2.96999 19.4724 2.66707 20.2016C2.36416 20.9308 2.20822 21.7127 2.20822 22.5023C2.20822 23.2919 2.36416 24.0738 2.66707 24.803C2.96999 25.5322 3.41393 26.1944 3.97342 26.7516C5.01803 27.8032 6.41271 28.4342 7.89218 28.5245C9.37166 28.6148 10.8327 28.1581 11.9975 27.2414C11.2788 26.6776 10.6973 25.9583 10.2967 25.1375C9.89605 24.3167 9.68672 23.4157 9.68442 22.5023Z" fill="#EA1D25"/>
<path d="M21.7919 22.5044C21.7919 24.1017 21.159 25.6311 20.0289 26.7613C18.9763 27.802 17.5814 28.4247 16.1038 28.5134C14.6263 28.6021 13.1668 28.1508 11.9973 27.2435C12.7147 26.6786 13.2953 25.9591 13.6958 25.1385C14.0963 24.3179 14.3064 23.4175 14.3103 22.5044C14.3114 21.5905 14.1035 20.6883 13.7027 19.867C13.3018 19.0457 12.7185 18.3268 11.9973 17.7653C13.1617 16.8455 14.6238 16.3863 16.105 16.4753C17.5862 16.5642 18.9829 17.195 20.0289 18.2475C20.5899 18.8051 21.0346 19.4684 21.3373 20.1992C21.6399 20.9299 21.7944 21.7135 21.7919 22.5044Z" fill="#139FDA"/>
<path d="M2 0H22V13H2V0Z" fill="white"/>
<path d="M9.08215 11.2421H14.9127V1.75808H9.08215V11.2345V11.2421Z" fill="#F06022"/>
<path d="M9.68473 6.50342C9.68199 5.58934 9.88906 4.68682 10.29 3.86535C10.6909 3.04389 11.275 2.3254 11.9973 1.76519C10.8328 0.848628 9.37202 0.392066 7.89281 0.482347C6.4136 0.572627 5.01917 1.20345 3.97475 2.25483C3.41537 2.81195 2.97151 3.47405 2.66864 4.20313C2.36578 4.93221 2.20987 5.71393 2.20987 6.50342C2.20987 7.29291 2.36578 8.07462 2.66864 8.80371C2.97151 9.53279 3.41537 10.1949 3.97475 10.752C5.01917 11.8034 6.4136 12.4342 7.89281 12.5245C9.37202 12.6148 10.8328 12.1582 11.9973 11.2416C11.2788 10.678 10.6974 9.95881 10.2969 9.13813C9.89632 8.31744 9.68703 7.41663 9.68473 6.50342Z" fill="#EA1D25"/>
<path d="M21.7901 6.50322C21.7901 8.10021 21.1573 9.6294 20.0274 10.7593C18.975 11.7999 17.5803 12.4225 16.103 12.5111C14.6257 12.5998 13.1666 12.1486 11.9973 11.2415C12.7145 10.6767 13.295 9.95726 13.6955 9.13683C14.0959 8.3164 14.3059 7.41615 14.3099 6.50322C14.3109 5.58943 14.1031 4.68749 13.7023 3.86629C13.3015 3.04509 12.7183 2.32636 11.9973 1.765C13.1614 0.845359 14.6233 0.386241 16.1042 0.475153C17.5852 0.564064 18.9816 1.19479 20.0274 2.24711C20.5883 2.80454 21.0329 3.4678 21.3355 4.19841C21.6381 4.92902 21.7926 5.71244 21.7901 6.50322Z" fill="#F79D1D"/>
<defs>
<linearGradient id="paint0_linear" x1="59.1079" y1="23.2554" x2="64.0439" y2="23.2554" gradientUnits="userSpaceOnUse">
<stop stop-color="#007940"/>
<stop offset="0.2285" stop-color="#00873F"/>
<stop offset="0.7433" stop-color="#40A737"/>
<stop offset="1" stop-color="#5CB531"/>
</linearGradient>
<linearGradient id="paint1_linear" x1="59.1078" y1="22.486" x2="64.0441" y2="22.486" gradientUnits="userSpaceOnUse">
<stop stop-color="#007940"/>
<stop offset="0.2285" stop-color="#00873F"/>
<stop offset="0.7433" stop-color="#40A737"/>
<stop offset="1" stop-color="#5CB531"/>
</linearGradient>
<linearGradient id="paint2_linear" x1="59.1078" y1="21.6491" x2="64.0439" y2="21.6491" gradientUnits="userSpaceOnUse">
<stop stop-color="#007940"/>
<stop offset="0.2285" stop-color="#00873F"/>
<stop offset="0.7433" stop-color="#40A737"/>
<stop offset="1" stop-color="#5CB531"/>
</linearGradient>
<linearGradient id="paint3_linear" x1="48.0575" y1="22.486" x2="53.0699" y2="22.486" gradientUnits="userSpaceOnUse">
<stop stop-color="#1F286F"/>
<stop offset="0.4751" stop-color="#004E94"/>
<stop offset="0.8261" stop-color="#0066B1"/>
<stop offset="1" stop-color="#006FBC"/>
</linearGradient>
<linearGradient id="paint4_linear" x1="53.5564" y1="22.486" x2="58.4246" y2="22.486" gradientUnits="userSpaceOnUse">
<stop stop-color="#6C2C2F"/>
<stop offset="0.1735" stop-color="#882730"/>
<stop offset="0.5731" stop-color="#BE1833"/>
<stop offset="0.8585" stop-color="#DC0436"/>
<stop offset="1" stop-color="#E60039"/>
</linearGradient>
<clipPath id="clip0">
<rect width="18.4615" height="12" fill="white" transform="translate(47 1)"/>
</clipPath>
<clipPath id="clip1">
<rect width="18.0905" height="12" fill="white" transform="translate(47 16.5)"/>
</clipPath>
<clipPath id="clip2">
<rect width="18.4615" height="12" fill="white" transform="translate(25 1)"/>
</clipPath>
</defs>
</svg>
