<?xml version="1.0" encoding="utf-8"?>
<!-- Generator: Adobe Illustrator 18.1.1, SVG Export Plug-In . SVG Version: 6.00 Build 0)  -->
<svg version="1.1" id="Ebene_1" xmlns="http://www.w3.org/2000/svg" xmlns:xlink="http://www.w3.org/1999/xlink" x="0px" y="0px"
	 viewBox="0 0 100 27" enable-background="new 0 0 100 27" width="500" height="135" xml:space="preserve">
<path id="path14519" fill="#233977" d="M55.1,7.4h-3.7c-0.4,0-0.7,0.2-0.9,0.5l-5.2,7.6l-2.2-7.3c-0.1-0.5-0.6-0.8-1-0.8h-3.7
	c-0.4,0-0.8,0.4-0.6,0.9l4.1,12.1L38,25.8c-0.3,0.4,0,1,0.5,1h3.7c0.4,0,0.7-0.2,0.9-0.5l12.4-18C55.9,8,55.6,7.4,55.1,7.4
	 M30.1,14.6c-0.4,2.1-2,3.6-4.2,3.6c-1.1,0-1.9-0.3-2.5-1c-0.6-0.7-0.8-1.6-0.6-2.6c0.3-2.1,2.1-3.6,4.2-3.6c1.1,0,1.9,0.4,2.5,1
	C30,12.7,30.2,13.6,30.1,14.6 M35.2,7.4h-3.7c-0.3,0-0.6,0.2-0.6,0.5l-0.2,1l-0.3-0.4C29.7,7.4,27.9,7,26.1,7
	c-4.1,0-7.6,3.1-8.3,7.5c-0.4,2.2,0.1,4.3,1.4,5.7c1.1,1.3,2.8,1.9,4.7,1.9c3.3,0,5.2-2.1,5.2-2.1l-0.2,1c-0.1,0.4,0.2,0.7,0.6,0.7
	h3.4c0.5,0,1-0.4,1.1-0.9l2-12.8C36,7.7,35.6,7.4,35.2,7.4 M12.9,7.5c-0.4,2.8-2.6,2.8-4.6,2.8H7.1L7.9,5c0-0.3,0.3-0.5,0.6-0.5h0.5
	c1.4,0,2.7,0,3.4,0.8C12.9,5.8,13.1,6.5,12.9,7.5 M12,0.2H4.2c-0.5,0-1,0.4-1.1,0.9L0,21c-0.1,0.4,0.2,0.7,0.6,0.7h3.7
	c0.5,0,1-0.4,1.1-0.9l0.8-5.4c0.1-0.5,0.5-0.9,1.1-0.9h2.5c5.1,0,8.1-2.5,8.9-7.4c0.3-2.1,0-3.8-1-5C16.6,0.9,14.6,0.2,12,0.2"/>
<path id="path14523" fill="#169BD8" d="M95.1,0.7L91.9,21c-0.1,0.4,0.2,0.7,0.6,0.7h3.2c0.5,0,1-0.4,1.1-0.9L100,0.9
	c0.1-0.4-0.2-0.7-0.6-0.7h-3.6C95.4,0.2,95.2,0.4,95.1,0.7 M85.5,14.6c-0.4,2.1-2,3.6-4.2,3.6c-1.1,0-1.9-0.3-2.5-1
	c-0.6-0.7-0.8-1.6-0.6-2.6c0.3-2.1,2.1-3.6,4.2-3.6c1.1,0,1.9,0.4,2.5,1C85.5,12.7,85.7,13.6,85.5,14.6 M90.7,7.4H87
	c-0.3,0-0.6,0.2-0.6,0.5l-0.2,1l-0.3-0.4C85.1,7.4,83.3,7,81.5,7c-4.1,0-7.6,3.1-8.3,7.5c-0.4,2.2,0.1,4.3,1.4,5.7
	c1.1,1.3,2.8,1.9,4.7,1.9c3.3,0,5.2-2.1,5.2-2.1l-0.2,1c-0.1,0.4,0.2,0.7,0.6,0.7h3.4c0.5,0,1-0.4,1.1-0.9l2-12.8
	C91.4,7.7,91.1,7.4,90.7,7.4 M68.4,7.5c-0.4,2.8-2.6,2.8-4.6,2.8h-1.2L63.4,5c0-0.3,0.3-0.5,0.6-0.5h0.5c1.4,0,2.7,0,3.4,0.8
	C68.4,5.8,68.5,6.5,68.4,7.5 M67.5,0.2h-7.8c-0.5,0-1,0.4-1.1,0.9L55.5,21c-0.1,0.4,0.2,0.7,0.6,0.7h4c0.4,0,0.7-0.3,0.7-0.6
	l0.9-5.7c0.1-0.5,0.5-0.9,1.1-0.9h2.5c5.1,0,8.1-2.5,8.9-7.4c0.3-2.1,0-3.8-1-5C72,0.9,70.1,0.2,67.5,0.2"/>
</svg>
