<svg width="78" height="36" viewBox="0 0 78 36" fill="none" xmlns="http://www.w3.org/2000/svg">
<path fill-rule="evenodd" clip-rule="evenodd" d="M2.66103 19.9146V5.21182H0.00297546V19.9146H2.66401H2.66103ZM18.6183 19.9146L15.0991 8.21853H11.9255L8.49565 19.3961L5.32207 12L8.49565 5.20884H5.40849L2.75043 12.0864L5.66774 19.9116H11.3295L11.7586 17.933H15.2749L15.7904 19.9116H18.6213L18.6183 19.9146ZM16.5562 6.67196L15.0991 5.20884H11.9255L10.4683 6.67196H16.5592H16.5562ZM31.3126 19.9146L30.967 8.2215H28.3923L25.3916 14.068L22.4743 8.2215H19.9027L19.4765 19.9176H22.1346L22.221 15.6176V15.2749C22.221 14.1574 22.1346 12.6943 21.8783 10.8885C22.4803 12.4351 22.9064 13.5525 23.3355 14.3273L25.3946 18.1982L27.3673 14.4167C27.8828 13.6419 28.3119 12.438 28.9108 10.9779C28.6546 12.7837 28.5682 14.2468 28.5682 15.2779L28.6546 19.9205H31.3126V19.9146ZM36.5453 19.9146V8.2215H33.7144V19.9146H36.5453ZM44.9516 17.7661H41.6916V8.2215H39.0335V19.9146H44.6089L44.9516 17.7661ZM36.5423 6.67494V5.21182H33.7114V6.67494H36.5423ZM14.8398 15.9603H12.0954L12.6943 13.4661C13.1234 11.4875 13.3797 10.1137 13.4661 9.42538C13.9816 11.3176 14.2379 12.6943 14.4107 13.4661L14.8398 15.9603Z" fill="white"/>
<path fill-rule="evenodd" clip-rule="evenodd" d="M72.7479 19.5749V17.4264C71.8897 17.772 71.0315 17.9419 70.3462 17.9419C69.8306 17.9419 69.4015 17.8555 69.1453 17.5128C68.6297 16.9973 68.2871 15.9632 68.2871 14.2468C68.2871 12.3546 68.6297 11.1507 69.2287 10.5488C69.5714 10.2061 70.0005 10.0333 70.516 10.0333C71.2878 10.0333 71.9762 10.2061 72.7479 10.4624V8.39732C72.146 8.13807 71.3742 7.96821 70.516 7.96821C68.7996 7.96821 67.5123 8.57015 66.6541 9.86044C65.8823 10.9779 65.5396 12.441 65.5396 14.2468C65.5396 16.0526 65.8823 17.4294 66.4812 18.374C67.253 19.4914 68.4569 20.0934 70.1703 20.0934C71.112 20.0934 71.9702 19.9205 72.745 19.5779L72.7479 19.5749ZM72.7479 21.3807H68.0308L66.5736 22.8408H71.2908L72.7479 21.3807ZM64.4251 13.9846C64.4251 9.9409 62.8815 7.96524 59.7914 7.96524C56.7013 7.96524 55.1577 9.94388 55.1577 13.9846C55.1577 16.3924 55.6732 18.0253 56.6178 18.9729C57.3896 19.7477 58.4207 20.0904 59.7914 20.0904C61.5078 20.0904 62.7087 19.4885 63.4805 18.2846C64.0824 17.2535 64.4251 15.8768 64.4251 13.9876V13.9846ZM55.4199 19.9176L51.9871 12.006L55.1607 5.21182H52.0735L49.329 12.0894L52.2463 19.9146H55.4199V19.9176ZM49.329 19.9176V5.2148H46.5816V19.9176H49.329ZM61.6806 13.9846C61.6806 16.0467 61.4244 17.2506 60.9089 17.7691C60.736 18.0283 60.3069 18.1117 59.7944 18.1117C59.2818 18.1117 58.9362 18.0253 58.7663 17.7691C58.1644 17.1671 57.9081 15.9632 57.9081 13.9846C57.9081 12.0924 58.1644 10.8885 58.7663 10.2866C59.0226 10.0303 59.3683 9.85746 59.7974 9.85746C60.2265 9.85746 60.6556 10.0303 60.9118 10.2866C61.4274 10.8021 61.6836 12.0924 61.6836 13.9846H61.6806Z" fill="white"/>
<path fill-rule="evenodd" clip-rule="evenodd" d="M77.2148 6.68388C77.2148 5.75416 76.6158 5.18202 75.7159 5.18202C74.816 5.18202 74.214 5.7482 74.214 6.68388C74.214 7.61957 74.8041 8.18873 75.7159 8.18873C76.6278 8.18873 77.2148 7.62553 77.2148 6.68388ZM76.881 6.68388C76.881 7.43779 76.4907 7.9116 75.7159 7.9116C74.9411 7.9116 74.5478 7.44077 74.5478 6.68388C74.5478 5.92699 74.9441 5.45617 75.7159 5.45617C76.4877 5.45617 76.881 5.92997 76.881 6.68388ZM76.3774 7.4378L76.2404 7.11299C76.1778 6.96697 76.1063 6.83586 75.9871 6.7405C76.1957 6.66005 76.3298 6.54383 76.3298 6.33226C76.3298 5.92997 75.9811 5.87037 75.6146 5.87037H75.1825V7.4378H75.5163V6.815L75.6921 6.80606C75.7934 6.87758 75.8649 7.03849 75.9066 7.18153L75.9841 7.43481H76.3804L76.3774 7.4378ZM75.993 6.33226C75.993 6.52893 75.9066 6.60343 75.5163 6.62131V6.08791H75.6206C75.9066 6.08791 75.993 6.12664 75.993 6.33226Z" fill="white"/>
<path fill-rule="evenodd" clip-rule="evenodd" d="M69.0231 4.7261H67.6523L67.995 4.38341C68.6804 3.61162 69.0231 2.92327 69.0231 2.32133C69.0231 1.46312 68.6804 1.03402 67.9086 1.03402C67.4795 1.03402 67.2232 1.03402 66.967 1.20387V1.71939C67.2232 1.63298 67.4795 1.54656 67.8252 1.54656C68.2543 1.54656 68.4241 1.80581 68.4241 2.31835C68.4241 2.66104 68.3377 2.92029 68.1679 3.26298C68.0814 3.43581 67.8252 3.69208 67.5689 4.03477L66.967 4.72312V5.23864H69.0231V4.72312V4.7261ZM66.4514 3.26596C66.4514 1.71939 65.9359 1.03402 64.9943 1.03402C64.5652 1.03402 64.1361 1.20685 63.9662 1.54954C63.7099 1.89223 63.6235 2.32133 63.6235 2.75044C63.6235 3.26596 63.7099 3.60864 63.9662 3.86789C64.1391 4.12416 64.4788 4.297 64.9079 4.297C65.2506 4.297 65.5932 4.21058 65.8495 4.04073C65.6767 5.07177 65.0777 5.6737 64.2225 5.84356V6.27266C64.9943 6.27266 65.5068 5.92997 65.9359 5.32804C66.2786 4.81252 66.4485 4.12714 66.4485 3.26596H66.4514ZM62.7683 5.24162V1.03402H62.3392L61.3976 1.54954V2.06506L62.1693 1.72237V5.2446H62.7713L62.7683 5.24162ZM71.9374 3.60864C71.9374 4.03775 71.9374 4.29402 71.851 4.46685C71.7646 4.80954 71.5083 4.89595 71.1656 4.89595C70.8229 4.89595 70.5667 4.72312 70.4803 4.29402C70.3938 4.12118 70.3938 3.7785 70.3938 3.26298V2.74745C70.6501 2.57462 70.9094 2.49118 71.252 2.49118C71.6811 2.49118 71.9374 2.92029 71.9374 3.60864ZM65.8555 3.52223C65.5128 3.69506 65.2565 3.78148 64.9973 3.78148C64.4847 3.78148 64.2255 3.43879 64.2255 2.66402C64.2255 1.88925 64.4817 1.46312 64.9973 1.46312C65.5962 1.46312 65.8555 2.06506 65.8555 3.0961V3.52521V3.52223ZM72.5394 3.60864C72.5394 2.5776 72.1103 2.06208 71.3385 2.06208C70.9958 2.06208 70.6531 2.23492 70.3968 2.40477C70.5697 1.80283 70.6531 1.37373 70.9123 1.11746C71.1686 0.77477 71.5977 0.601937 72.1103 0.601937V0C71.3385 0.172833 70.7395 0.51552 70.3104 1.11746C69.9677 1.63298 69.7979 2.31835 69.7979 3.17954C69.7979 3.86491 69.8843 4.297 70.0541 4.63968C70.224 5.1552 70.6531 5.32804 71.1686 5.32804C72.1132 5.32804 72.5394 4.7261 72.5394 3.61162V3.60864Z" fill="white"/>
<path fill-rule="evenodd" clip-rule="evenodd" d="M0 24.7122V35.5917C0 35.8182 0.181773 36 0.408244 36H48.2801C54.6392 35.997 60.736 33.4611 65.2208 28.9526L69.8426 24.3069H0.408244C0.181773 24.3039 0 24.4857 0 24.7122Z" fill="#73D700"/>
<path d="M4.64861 27.9901C4.42512 27.9901 4.24335 28.1719 4.24335 28.3983V32.2364H5.32803V30.5707H6.86267C7.08616 30.5707 7.26793 30.3889 7.26793 30.1624V29.7005H5.32505V29.0628C5.32505 28.9526 5.41742 28.8602 5.52768 28.8602H7.36627C7.58976 28.8602 7.77153 28.6755 7.77153 28.452V27.9901H4.64563H4.64861Z" fill="white"/>
<path d="M9.52967 31.3633C9.41643 31.3633 9.32703 31.2709 9.32405 31.1607V28.4013C9.32405 28.1748 9.1393 27.9931 8.91581 27.9931H8.23639V31.8282C8.23639 32.0546 8.42115 32.2364 8.64464 32.2364H10.8736C11.0971 32.2364 11.2818 32.0517 11.2818 31.8282V31.3633H9.52967Z" fill="white"/>
<path d="M11.7586 32.2305V30.0164C11.7586 29.7929 11.9434 29.6082 12.1669 29.6082H12.8463V32.2305H11.7586Z" fill="white"/>
<path d="M12.4351 29.2148H11.7556V28.3983C11.7556 28.1748 11.9374 27.9901 12.1639 27.9901H12.4351C12.6585 27.9901 12.8433 28.1748 12.8433 28.3983V28.8066C12.8433 29.0301 12.6615 29.2148 12.4351 29.2148Z" fill="white"/>
<path d="M19.8371 31.5451H19.0891C18.8746 31.5451 18.6988 31.3693 18.6988 31.1517V30.4396H19.8311C20.1291 30.4396 20.3705 30.6869 20.3705 30.9908C20.3705 31.2948 20.1321 31.5391 19.8371 31.5421M18.6988 28.6755H19.7179C19.9861 28.6755 20.2036 28.896 20.2036 29.1671C20.2036 29.4383 19.9891 29.6558 19.7239 29.6588H19.0534C18.8597 29.6588 18.7018 29.5009 18.7018 29.3102V28.6755H18.6988ZM20.9992 30.1386C20.9754 30.1177 20.9098 30.0641 20.892 30.0522C21.0946 29.8466 21.181 29.5694 21.181 29.2208C21.181 28.446 20.6804 27.9871 19.9086 27.9871H18.2399C18.0164 27.9871 17.8346 28.1689 17.8346 28.3954V31.8252C17.8346 32.0487 18.0164 32.2334 18.2399 32.2334H20.0993C20.8711 32.2334 21.339 31.7835 21.339 31.0057C21.339 30.6422 21.2138 30.3502 20.9992 30.1416" fill="white"/>
<path d="M25.2217 27.9931H24.736C24.5125 27.9931 24.3308 28.1748 24.3308 28.4013V30.9074C24.3308 31.2739 24.0775 31.5183 23.6454 31.5183H23.4457C23.0107 31.5183 22.7604 31.2739 22.7604 30.9074V27.996H22.2746C22.0511 27.996 21.8694 28.1778 21.8694 28.4043V31.0445C21.8694 31.8014 22.3909 32.3079 23.2878 32.3079H23.8063C24.7032 32.3079 25.2247 31.8043 25.2247 31.0445V27.999L25.2217 27.9931Z" fill="white"/>
<path d="M27.0186 28.8602H28.3864C28.6099 28.8602 28.7916 28.6784 28.7916 28.452V27.9901H27.0156C26.3064 27.996 25.7343 28.5741 25.7343 29.2863C25.7343 29.9985 26.2975 30.526 26.9978 30.5409H27.555C27.7785 30.5409 27.9603 30.7256 27.9603 30.9521C27.9603 31.1786 27.7785 31.3603 27.555 31.3633H25.782V31.8252C25.782 32.0487 25.9637 32.2334 26.1872 32.2334H27.561C28.2672 32.2215 28.8334 31.6464 28.8334 30.9372C28.8334 30.228 28.2761 29.7035 27.5818 29.6827H27.0127C26.7892 29.6827 26.6074 29.4979 26.6074 29.2714C26.6074 29.045 26.7892 28.8632 27.0127 28.8602" fill="white"/>
<path d="M16.9764 31.4915L16.2374 30.4693L15.5997 31.3484L16.142 32.0964C16.3059 32.3228 16.6248 32.3735 16.8512 32.2096L16.8632 32.2007C17.0896 32.0368 17.1403 31.7149 16.9764 31.4885" fill="white"/>
<path d="M15.9811 30.1147L14.5448 28.1331C14.3809 27.9066 14.0621 27.856 13.8356 28.0199L13.8237 28.0288C13.5972 28.1927 13.5466 28.5145 13.7104 28.741L14.7057 30.1147L13.7104 31.4915C13.5436 31.7209 13.5942 32.0397 13.8207 32.2066L13.8326 32.2156C14.0591 32.3795 14.3779 32.3288 14.5418 32.1023L15.9781 30.1177L15.9811 30.1147Z" fill="white"/>
<path d="M16.8661 28.0288L16.8542 28.0199C16.6278 27.856 16.3089 27.9066 16.145 28.1331L15.6027 28.8811L16.2404 29.7601L16.9794 28.741C17.1433 28.5145 17.0926 28.1927 16.8661 28.0288Z" fill="white"/>
</svg>
